<mxfile host="app.diagrams.net" modified="2023-03-25T08:39:21.433Z" agent="5.0 (Windows NT 10.0; WOW64) AppleWebKit/537.36 (KHTML, like Gecko) Chrome/94.0.4606.71 Safari/537.36 Core/1.94.197.400 QQBrowser/11.6.5265.400" etag="_cLVoGAy4r3w7k7dCi-p" version="21.0.10" type="github">
  <diagram name="第 1 页" id="iK13F5hM5hU_sIBJCB84">
    <mxGraphModel dx="1050" dy="547" grid="1" gridSize="10" guides="1" tooltips="1" connect="1" arrows="1" fold="1" page="1" pageScale="1" pageWidth="827" pageHeight="1169" math="0" shadow="0">
      <root>
        <mxCell id="0" />
        <mxCell id="1" parent="0" />
        <mxCell id="qTnbxWI5qCUpBFMNoXuZ-2" style="rounded=0;orthogonalLoop=1;jettySize=auto;html=1;exitX=1;exitY=0.5;exitDx=0;exitDy=0;entryX=0;entryY=0.5;entryDx=0;entryDy=0;endArrow=none;endFill=0;" edge="1" parent="1" source="qTnbxWI5qCUpBFMNoXuZ-6" target="qTnbxWI5qCUpBFMNoXuZ-8">
          <mxGeometry relative="1" as="geometry" />
        </mxCell>
        <mxCell id="qTnbxWI5qCUpBFMNoXuZ-3" style="rounded=0;orthogonalLoop=1;jettySize=auto;html=1;exitX=1;exitY=0.5;exitDx=0;exitDy=0;entryX=0;entryY=0.5;entryDx=0;entryDy=0;endArrow=none;endFill=0;" edge="1" parent="1" source="qTnbxWI5qCUpBFMNoXuZ-6" target="qTnbxWI5qCUpBFMNoXuZ-9">
          <mxGeometry relative="1" as="geometry" />
        </mxCell>
        <mxCell id="qTnbxWI5qCUpBFMNoXuZ-6" value="用户角色" style="rounded=0;whiteSpace=wrap;html=1;fontSize=17;fontStyle=0" vertex="1" parent="1">
          <mxGeometry x="240" y="246" width="90" height="40" as="geometry" />
        </mxCell>
        <mxCell id="qTnbxWI5qCUpBFMNoXuZ-8" value="用户编号" style="ellipse;whiteSpace=wrap;html=1;fontSize=17;fontStyle=0" vertex="1" parent="1">
          <mxGeometry x="400" y="206" width="80" height="40" as="geometry" />
        </mxCell>
        <mxCell id="qTnbxWI5qCUpBFMNoXuZ-9" value="角色编号" style="ellipse;whiteSpace=wrap;html=1;fontSize=17;fontStyle=0" vertex="1" parent="1">
          <mxGeometry x="400" y="286" width="80" height="40" as="geometry" />
        </mxCell>
      </root>
    </mxGraphModel>
  </diagram>
</mxfile>
